PathFileType	3	(X/Y/Z)	D:\VICON_DB\Goncalves\Pilot01\09-03-2026\bw_sq_140_01.trc
DataRate	CameraRate	NumFrames	NumMarkers	Units	OrigDataRate	OrigDataStartFrame	OrigNumFrames
200.0	200.0	4	34	mm	200.0	457	913	
Frame#	Time	LASI			RASI			LPSI			RPSI			LTHI			LTHAP			LTHAD			LKNE			LKNM			LTIB			LTIAP			LTIAD			LANK			LMED			LHEE			LTOE			LFMH			LSMH			LVMH			RTHI			RTHAP			RTHAD			RKNE			RKNM			RTIB			RTIAP			RTIAD			RANK			RMED			RHEE			RTOE			RFMH			RSMH			RVMH			
		X1	Y1	Z1	X2	Y2	Z2	X3	Y3	Z3	X4	Y4	Z4	X5	Y5	Z5	X6	Y6	Z6	X7	Y7	Z7	X8	Y8	Z8	X9	Y9	Z9	X10	Y10	Z10	X11	Y11	Z11	X12	Y12	Z12	X13	Y13	Z13	X14	Y14	Z14	X15	Y15	Z15	X16	Y16	Z16	X17	Y17	Z17	X18	Y18	Z18	X19	Y19	Z19	X20	Y20	Z20	X21	Y21	Z21	X22	Y22	Z22	X23	Y23	Z23	X24	Y24	Z24	X25	Y25	Z25	X26	Y26	Z26	X27	Y27	Z27	X28	Y28	Z28	X29	Y29	Z29	X30	Y30	Z30	X31	Y31	Z31	X32	Y32	Z32	X33	Y33	Z33	X34	Y34	Z34	
457	2.28	230.83076	469.42584	-1093.5448	226.77306	473.65332	-1355.6945				421.29028	530.0174	-1256.96	250.65753	495.84686	-1017.8802	289.60641	493.55542	-1037.3715	247.18214	471.7785	-940.46655	141.34146	433.84766	-824.19855				187.05501	267.02591	-801.71521	80.652176	320.7887	-801.6192	149.04245	227.69049	-798.93427	259.36191	73.317474	-840.01434				271.69714	66.512032	-905.79303	184.49387	71.843971	-818.18158	124.1526	44.491837	-814.71985				172.33868	25.116726	-749.5238	233.61316	470.0296	-1502.5822	265.27869	500.83017	-1402.1849	210.03986	498.8454	-1428.1979	136.80156	431.88937	-1595.3035				158.68271	277.17819	-1633.673	73.471947	305.71936	-1624.326	113.30303	229.82649	-1612.053	258.76974	65.078232	-1574.2382				266.56366	63.484699	-1519.6406	176.57977	69.580666	-1609.1199	120.86439	50.852123	-1612.4725				168.81827	19.930399	-1667.8036
458	2.285	230.83899	470.01648	-1093.5132	226.72932	474.2562	-1355.7809				421.18369	530.93658	-1256.9927	250.62839	496.36829	-1017.7814	289.59561	494.15158	-1037.3558	247.20049	472.1647	-940.38232	141.43524	433.9169	-824.1391				187.15208	267.03442	-801.67218	80.77594	320.8093	-801.57733	149.127	227.70802	-798.87286	259.40396	73.276802	-839.98706				271.72598	66.511414	-905.74719	184.52942	71.834084	-818.12518	124.16858	44.500862	-814.69122				172.35092	25.091204	-749.48529	233.59479	470.42252	-1502.7927	265.24127	501.50626	-1402.3489	209.9601	499.36356	-1428.4452	136.86429	431.96655	-1595.5156				158.78188	277.15891	-1633.7977	73.585281	305.72287	-1624.4867	113.3915	229.82397	-1612.175	258.79956	65.061066	-1574.2849				266.58228	63.488735	-1519.6847	176.61983	69.566238	-1609.1718	120.88924	50.859863	-1612.5271				168.84341	19.883902	-1667.8368
459	2.29	230.84981	470.64993	-1093.4709	226.68369	474.89728	-1355.8672				421.0701	531.91595	-1257.0216	250.59766	496.92484	-1017.6642	289.58673	494.79074	-1037.3304	247.21825	472.57642	-940.28107	141.53323	433.9892	-824.06531				187.25304	267.04187	-801.61993	80.907356	320.83167	-801.52307	149.21501	227.72438	-798.8045	259.44678	73.23703	-839.95691				271.75635	66.511612	-905.69904	184.56551	71.824432	-818.0675	124.18654	44.509888	-814.66077				172.36383	25.06443	-749.44604	233.57645	470.84088	-1503.0077	265.23087	502.22928	-1402.4911	209.87541	499.91049	-1428.6995	136.93436	432.05496	-1595.7335				158.88702	277.14066	-1633.9252	73.705826	305.73001	-1624.6511	113.48549	229.8232	-1612.2987	258.83014	65.044922	-1574.3339				266.60245	63.492851	-1519.7286	176.66148	69.551582	-1609.223	120.9146	50.86869	-1612.582				168.86829	19.838991	-1667.8705
460	2.295	230.86302	471.32724	-1093.4188	226.63596	475.5762	-1355.954				420.94849	532.95673	-1257.0466	250.56514	497.51727	-1017.5282	289.57944	495.47357	-1037.2954	247.23549	473.01413	-940.16248	141.63597	434.06445	-823.97632				187.3582	267.04791	-801.55811	81.046303	320.85596	-801.45551	149.30698	227.73924	-798.72894	259.49008	73.198326	-839.92365				271.7883	66.512428	-905.64838	184.60187	71.815163	-818.00879	124.20619	44.518837	-814.62891				172.37746	25.036322	-749.40607	233.55902	471.28534	-1503.2268	265.24319	502.99841	-1402.6135	209.78578	500.48608	-1428.9604	137.01324	432.15497	-1595.9565				158.99886	277.12354	-1634.0554	73.834023	305.74121	-1624.8199	113.58521	229.82439	-1612.4249	258.86151	65.029556	-1574.3851				266.62424	63.496864	-1519.7727	176.70468	69.536659	-1609.2737	120.94025	50.878685	-1612.6373				168.89272	19.795712	-1667.905
